<?xml version="1.0"?>
<svg xmlns:rdf="http://www.w3.org/1999/02/22-rdf-syntax-ns#" xmlns="http://www.w3.org/2000/svg" xmlns:cc="http://creativecommons.org/ns#" xmlns:dc="http://purl.org/dc/elements/1.1/" xmlns:svg="http://www.w3.org/2000/svg" id="svg2437" viewBox="0 0 612 612" version="1.0">
  <g id="g9354" transform="translate(-.0819 -.58539)">
    <g id="g2447">
      <path id="path2449" stroke="#fff" stroke-width="3.408" d="m82.432 17.924c-41.335 0-64.571 21.371-64.571 65.036v450.12c0 40.84 20.891 62.23 62.192 62.23h452.03c41.3 0 62.22-20.32 62.22-62.23v-450.12c0-42.6-20.92-65.036-63.52-65.036 0 0-448.49-0.142-448.35 0z"/>
    </g>
    <g id="g2451" fill="#fff">
      <g id="g2453">
        <path id="path2455" d="m300.8 131.26c22.55 0 40.84-18.28 40.84-40.836 0-22.551-18.29-40.834-40.84-40.834s-40.83 18.283-40.83 40.834c0 22.556 18.28 40.836 40.83 40.836z"/>
      </g>
      <path id="path2459" d="m257.1 140.27c-28.91 0-52.17 23.59-52.17 53v125.38c0 24.37 35.67 24.37 35.67 0v-114.64h8.45v313.9c0 32.59 47.5 31.63 47.5 0v-182.22h8.18v182.22c0 31.63 47.77 32.59 47.77 0v-313.9h8.25v114.64c0 24.56 35.48 24.56 35.42 0v-124.63c0-27.12-21.07-53.69-52.82-53.69l-86.25-0.06z"/>
    </g>
  </g>
  <metadata>
    <rdf:RDF>
      <cc:Work>
        <dc:format>image/svg+xml</dc:format>
        <dc:type rdf:resource="http://purl.org/dc/dcmitype/StillImage"/>
        <cc:license rdf:resource="http://creativecommons.org/licenses/publicdomain/"/>
        <dc:publisher>
          <cc:Agent rdf:about="http://openclipart.org/">
            <dc:title>Openclipart</dc:title>
          </cc:Agent>
        </dc:publisher>
        <dc:title>aiga toilet men bg</dc:title>
        <dc:date>2009-04-20T07:40:27</dc:date>
        <dc:description>Set of international airport symbols.&#xD;\n&#xD;\nSource: http://www.aiga.org/content.cfm/symbol-signs&#xD;\n&#xD;\nConverted to SVG by Jean-Victor Balin.</dc:description>
        <dc:source>http://openclipart.org/detail/25148/aiga-toilet-men-bg-by-anonymous-25148</dc:source>
        <dc:creator>
          <cc:Agent>
            <dc:title>Anonymous</dc:title>
          </cc:Agent>
        </dc:creator>
        <dc:subject>
          <rdf:Bag>
            <rdf:li>aiga</rdf:li>
            <rdf:li>aiga bg</rdf:li>
            <rdf:li>black and white</rdf:li>
            <rdf:li>clip art</rdf:li>
            <rdf:li>clipart</rdf:li>
            <rdf:li>externalsource</rdf:li>
            <rdf:li>icon</rdf:li>
            <rdf:li>image</rdf:li>
            <rdf:li>man</rdf:li>
            <rdf:li>map symbol</rdf:li>
            <rdf:li>media</rdf:li>
            <rdf:li>png</rdf:li>
            <rdf:li>public domain</rdf:li>
            <rdf:li>sign</rdf:li>
            <rdf:li>silhouette</rdf:li>
            <rdf:li>svg</rdf:li>
            <rdf:li>symbol</rdf:li>
            <rdf:li>toilet</rdf:li>
          </rdf:Bag>
        </dc:subject>
      </cc:Work>
      <cc:License rdf:about="http://creativecommons.org/licenses/publicdomain/">
        <cc:permits rdf:resource="http://creativecommons.org/ns#Reproduction"/>
        <cc:permits rdf:resource="http://creativecommons.org/ns#Distribution"/>
        <cc:permits rdf:resource="http://creativecommons.org/ns#DerivativeWorks"/>
      </cc:License>
    </rdf:RDF>
  </metadata>
</svg>
